<svg width="38" height="38" viewBox="0 0 38 38" fill="none" xmlns="http://www.w3.org/2000/svg">
<path d="M36.0951 23.1972L19.5076 18.6034C19.0446 18.4752 18.7241 18.055 18.7241 17.5742V1.06858C18.7241 0.363487 19.3972 -0.149315 20.0773 0.0394229L36.6649 4.63323C37.1278 4.76143 37.4483 5.18163 37.4483 5.66238V22.168C37.4483 22.8731 36.7753 23.3859 36.0951 23.1972Z" fill="url(#paint0_linear_1003_30121)"/>
<path d="M17.371 37.0961L0.783443 32.5023C0.320502 32.3741 0 31.9539 0 31.4732V14.9675C0 14.2624 0.673052 13.7496 1.35322 13.9384L17.9407 18.5322C18.4037 18.6604 18.7242 19.0806 18.7242 19.5613V36.067C18.7242 36.7721 18.0511 37.2849 17.371 37.0961Z" fill="#00CAB0"/>
<defs>
<linearGradient id="paint0_linear_1003_30121" x1="28.0862" y1="1.81897" x2="28.0862" y2="15.8976" gradientUnits="userSpaceOnUse">
<stop offset="0.000661376" stop-color="#5A4FAF"/>
<stop offset="0.9994" stop-color="#651DDD"/>
</linearGradient>
</defs>
</svg>
